<?xml version="1.0" standalone="no"?>
<!DOCTYPE svg PUBLIC "-//W3C//DTD SVG 20010904//EN"
 "http://www.w3.org/TR/2001/REC-SVG-20010904/DTD/svg10.dtd">
<svg version="1.0" xmlns="http://www.w3.org/2000/svg"
 width="1280.000000pt" height="726.000000pt" viewBox="0 0 1280.000000 726.000000"
 preserveAspectRatio="xMidYMid meet">
<metadata>
Created by potrace 1.15, written by Peter Selinger 2001-2017
</metadata>
<g transform="translate(0.000000,726.000000) scale(0.100000,-0.100000)"
fill="#000000" stroke="none">
<path d="M5865 7249 c-16 -4 -57 -31 -91 -58 -56 -45 -68 -50 -138 -60 -43 -6
-80 -11 -84 -11 -3 0 7 14 24 31 l29 31 -120 -4 c-133 -6 -219 -30 -297 -84
-90 -64 -99 -68 -109 -53 -5 8 -9 27 -9 42 l0 29 -32 -33 c-36 -35 -84 -59
-122 -59 -34 0 -38 12 -21 54 33 78 7 119 -58 92 -35 -14 -59 -40 -110 -120
-33 -51 -57 -69 -57 -42 0 22 -45 70 -58 62 -7 -4 -12 -32 -12 -66 l0 -59 -35
15 c-37 15 -185 20 -185 5 0 -4 10 -21 22 -36 21 -27 21 -27 1 -21 -39 13
-156 -13 -231 -51 -46 -23 -86 -36 -108 -35 -31 1 -33 0 -24 -18 10 -19 80
-71 110 -83 8 -3 -7 -6 -34 -6 -47 -1 -48 -2 -43 -28 3 -16 8 -37 12 -48 6
-19 2 -20 -50 -17 -69 5 -105 -4 -105 -24 0 -26 38 -91 66 -113 15 -12 21 -21
13 -21 -8 0 -48 -20 -89 -44 -41 -24 -92 -49 -112 -55 -21 -7 -38 -17 -38 -21
0 -14 36 -30 68 -30 16 0 31 -2 34 -5 2 -3 -17 -28 -44 -57 -67 -73 -62 -109
14 -87 47 13 58 11 58 -10 0 -11 7 -27 16 -35 14 -15 14 -16 -5 -16 -56 0 -29
-41 63 -98 l61 -37 -35 -5 c-19 -4 -45 -12 -57 -18 -17 -9 -22 -9 -26 2 -6 15
-106 56 -137 56 -25 0 -31 -12 -44 -84 -8 -44 -16 -62 -29 -64 -10 -2 -17 3
-17 12 0 29 -51 15 -97 -27 l-23 -20 -6 32 c-9 43 -23 49 -50 18 -16 -18 -24
-45 -29 -92 l-7 -65 -44 0 c-40 0 -44 2 -44 25 0 30 -9 31 -43 5 l-25 -20 1
50 c2 35 -3 54 -16 67 -26 27 -49 7 -72 -65 -16 -50 -23 -59 -35 -52 -8 5 -25
10 -38 10 -21 0 -22 -1 -7 -24 l16 -24 -105 1 c-57 1 -108 -2 -113 -6 -11 -12
26 -37 54 -37 32 0 29 -17 -8 -35 -28 -15 -34 -15 -78 0 -46 15 -81 13 -81 -6
0 -4 -31 5 -69 21 -96 41 -174 60 -248 60 -58 0 -63 -2 -63 -22 0 -21 40 -82
70 -105 15 -13 -4 -12 -77 3 -37 7 -53 -5 -53 -42 0 -19 -1 -34 -3 -34 -2 0
-40 16 -86 36 -85 37 -117 40 -134 13 -17 -27 2 -71 52 -121 41 -41 45 -47 27
-50 -12 -2 -27 -16 -34 -31 -10 -21 -18 -27 -30 -21 -40 16 -102 26 -127 20
l-28 -7 32 -33 c37 -38 38 -46 9 -46 -12 0 -47 -7 -78 -16 l-57 -16 -26 26
c-36 36 -57 34 -57 -5 0 -17 5 -39 10 -50 13 -24 13 -24 -35 1 -49 25 -205 30
-205 6 0 -22 68 -76 95 -76 l23 0 -28 -28 c-16 -16 -31 -44 -35 -63 -5 -28
-14 -37 -46 -51 l-39 -17 -6 42 c-5 32 -17 52 -51 85 -24 23 -50 42 -58 42
-19 0 -20 4 15 -73 38 -84 38 -95 -2 -62 -27 23 -32 25 -40 11 -5 -9 -7 -25
-3 -35 5 -18 4 -18 -35 1 -32 16 -58 20 -128 19 -48 -1 -105 -5 -126 -9 l-40
-7 26 -17 c14 -9 61 -28 104 -41 l79 -25 -55 -1 c-40 -1 -74 -10 -133 -38 -80
-37 -86 -37 -100 2 -2 5 -19 -1 -38 -12 l-34 -22 -43 42 c-31 30 -45 38 -51
29 -5 -9 -15 -10 -38 -2 -16 6 -61 10 -99 8 l-69 -3 46 -27 c31 -18 51 -38 57
-58 13 -35 9 -37 -25 -10 -28 22 -43 18 -43 -11 0 -24 1 -24 -51 6 -54 30
-139 36 -139 8 0 -9 19 -33 41 -54 l42 -38 -49 5 c-32 4 -64 1 -94 -10 -25 -9
-65 -16 -90 -16 -44 0 -117 -14 -126 -23 -3 -2 0 -25 7 -51 6 -25 8 -53 5 -62
-6 -15 -9 -15 -31 6 -28 27 -45 19 -45 -21 0 -16 -2 -29 -4 -29 -2 0 -26 11
-53 24 -26 14 -64 28 -83 31 l-35 7 24 -26 c23 -25 43 -36 156 -87 l50 -22
-53 -8 c-89 -12 -85 -23 19 -50 40 -10 106 -19 147 -19 65 0 74 -2 79 -20 6
-22 33 -26 65 -9 16 9 19 8 15 -3 -35 -85 -33 -158 5 -158 21 0 66 43 125 117
18 22 41 43 52 46 24 6 27 -3 9 -22 -11 -11 -1 -12 58 -7 39 3 86 9 104 12 31
7 33 6 27 -15 -5 -21 -3 -23 29 -19 l34 4 0 -58 c0 -54 2 -58 23 -58 43 0 123
47 165 96 37 43 42 46 42 25 0 -22 3 -23 44 -19 24 3 69 17 101 32 46 21 72
26 136 26 68 0 80 -3 89 -20 10 -19 8 -20 -50 -20 l-61 0 28 -25 c25 -22 26
-24 8 -25 -11 0 -42 7 -69 15 l-50 15 24 -25 23 -25 -49 0 c-29 0 -67 -9 -94
-22 l-45 -21 30 -7 c17 -4 55 -9 85 -10 l55 -2 -37 -10 c-42 -11 -47 -22 -21
-37 15 -9 12 -10 -17 -11 -81 -1 -168 -48 -154 -84 12 -30 103 -51 224 -51 0
0 -37 -38 -82 -85 l-82 -84 32 -7 c56 -11 166 6 218 35 25 14 48 26 49 26 2 0
-1 -16 -5 -35 -6 -27 -5 -35 6 -35 7 0 18 9 24 20 15 28 34 25 26 -4 -8 -33 1
-37 42 -20 19 8 36 13 37 12 1 -2 10 -18 19 -35 9 -18 21 -33 26 -33 24 0 7
-32 -27 -52 l-36 -22 32 -15 c28 -13 35 -13 78 5 29 12 56 32 70 52 21 31 22
32 32 13 6 -11 29 -27 50 -37 l40 -17 -25 -33 c-23 -29 -24 -33 -7 -36 26 -6
-30 -34 -86 -43 -49 -8 -41 -18 24 -30 33 -6 36 -9 20 -15 -27 -11 -51 -39
-70 -83 -25 -60 -22 -66 31 -56 26 5 59 15 74 23 26 12 27 12 22 -7 -4 -17 -1
-19 24 -15 16 3 38 9 48 13 17 8 19 5 13 -23 -6 -31 -6 -31 26 -25 32 6 32 6
13 -15 -11 -13 -16 -28 -12 -38 5 -14 15 -16 53 -10 26 3 62 15 80 26 l33 19
-6 -24 c-10 -40 24 -26 58 23 16 24 16 24 23 3 8 -26 38 -43 59 -35 16 6 20
20 16 64 -2 24 -1 24 17 7 11 -9 25 -17 31 -17 15 0 15 -5 0 -30 -7 -10 -10
-22 -6 -25 5 -6 68 7 100 20 13 5 15 2 11 -14 -4 -17 -1 -21 18 -21 12 0 30 7
40 16 17 15 17 13 12 -38 -5 -53 -4 -55 33 -87 49 -44 116 -73 157 -69 l32 3
8 75 c4 41 6 94 5 118 -2 30 0 41 9 38 24 -10 43 24 43 77 1 29 7 66 15 82
l13 30 1 -27 c1 -25 5 -28 36 -28 29 0 37 5 45 26 6 14 10 39 10 56 0 44 8 31
20 -32 10 -53 10 -54 -22 -87 -17 -18 -29 -35 -26 -39 3 -3 32 -1 64 5 77 15
75 15 72 -16 -3 -24 1 -28 25 -31 16 -2 39 4 53 13 23 15 24 14 24 -5 0 -25
26 -37 50 -23 13 9 19 7 28 -8 18 -29 39 -23 53 16 8 21 20 35 30 35 9 0 22 6
28 14 8 10 23 13 45 9 21 -3 45 1 65 12 18 9 40 14 48 11 8 -3 24 1 36 9 29
20 37 19 37 -6 0 -20 4 -21 40 -15 31 5 40 3 40 -8 0 -19 31 -29 64 -20 20 5
26 2 26 -10 0 -13 11 -16 53 -16 30 0 56 3 60 6 3 4 23 7 44 8 21 2 48 6 61
10 19 6 22 4 22 -17 0 -17 7 -26 22 -30 19 -5 16 -10 -32 -54 l-53 -47 29 -8
c16 -5 67 -6 114 -2 l85 6 -44 -24 c-24 -12 -45 -27 -45 -33 -1 -5 22 -12 51
-15 44 -4 51 -8 43 -20 -5 -8 -10 -27 -10 -42 0 -32 35 -47 68 -29 31 17 32
15 32 -47 0 -65 17 -97 55 -104 31 -6 70 21 79 55 4 16 12 23 28 23 15 -1 29
10 43 31 11 18 23 32 27 33 4 0 24 11 44 25 36 25 73 30 66 10 -5 -13 28 -24
58 -19 14 2 45 6 69 9 l44 6 -17 -25 c-22 -34 -21 -36 15 -36 l32 0 -27 -21
c-41 -32 -34 -49 20 -49 l46 0 -35 -39 c-71 -79 -58 -123 21 -72 27 17 55 31
63 31 8 0 32 9 54 20 44 23 48 24 40 11 -8 -15 13 -24 40 -17 14 4 49 26 79
51 49 39 56 42 61 26 15 -49 70 -28 99 37 17 38 20 40 72 44 39 3 67 13 97 34
34 23 51 28 85 26 42 -3 43 -4 40 -35 -3 -31 -1 -32 35 -35 33 -3 38 -6 34
-23 -8 -31 64 -27 94 6 21 21 33 25 90 25 l66 0 6 -38 c7 -53 47 -110 120
-172 174 -145 224 -284 183 -505 -37 -197 -66 -250 -177 -326 -32 -22 -65 -53
-74 -68 -8 -16 -31 -39 -52 -52 -21 -12 -51 -34 -67 -48 -80 -72 -180 -281
-197 -412 -6 -46 -20 -106 -30 -134 -29 -75 -33 -139 -15 -247 28 -169 26
-181 -47 -284 -35 -49 -67 -98 -71 -109 -4 -11 -27 -68 -52 -126 -41 -94 -49
-107 -79 -118 -26 -9 -32 -16 -28 -31 5 -17 0 -20 -28 -21 -51 -2 -91 -7 -97
-13 -3 -4 3 -6 14 -6 16 0 17 -2 4 -10 -10 -7 -11 -10 -2 -10 7 0 17 -11 22
-25 6 -15 17 -25 30 -25 23 0 27 -18 5 -26 -8 -4 -15 -9 -15 -13 0 -11 200
-127 240 -139 168 -51 404 -51 673 -1 59 11 116 21 127 22 11 1 20 5 20 10 0
5 17 6 38 3 104 -17 144 -18 248 -6 111 12 113 13 102 34 -10 19 -10 20 5 7
15 -12 17 -11 17 3 0 9 8 16 18 16 13 0 14 2 3 9 -16 10 -7 16 38 26 22 5 29
10 21 15 -9 6 -8 10 6 19 17 9 17 10 2 11 -29 0 -20 20 10 21 15 1 31 0 37 -1
5 -1 7 1 3 5 -11 12 -172 65 -196 65 -28 0 -62 17 -62 30 0 6 18 10 40 10 80
0 43 28 -97 72 l-72 22 -25 66 c-30 82 -60 269 -51 318 3 20 15 64 25 97 10
34 23 106 30 160 7 55 25 141 42 192 28 90 31 93 135 203 58 61 139 138 179
171 67 54 75 66 90 117 9 31 28 82 42 112 22 48 25 70 26 165 0 97 -3 119 -28
185 -16 41 -39 105 -51 141 -13 37 -33 85 -44 108 l-21 40 42 39 c132 120 156
137 244 169 213 77 678 121 987 94 205 -17 410 6 566 65 120 45 186 93 271
195 l47 56 24 -18 c13 -10 48 -24 78 -31 46 -10 55 -10 65 3 6 9 25 18 43 22
31 6 32 6 22 -20 -7 -20 -6 -30 5 -41 19 -20 35 -8 58 46 18 40 22 43 31 26
24 -44 73 -48 88 -6 6 19 25 36 55 50 54 27 54 27 54 4 0 -37 78 -81 145 -82
l30 0 -3 80 -4 80 57 0 c79 0 140 18 176 51 17 16 33 29 35 29 2 0 1 -13 -2
-30 -6 -25 -3 -30 13 -30 11 0 41 11 67 25 25 13 46 21 46 16 0 -4 -11 -39
-23 -77 -30 -88 -39 -134 -27 -134 24 0 240 104 273 131 20 17 51 60 71 101
21 41 36 62 36 49 0 -32 22 -25 49 14 13 19 27 35 31 35 4 0 10 -20 13 -45 12
-86 74 -170 121 -163 19 3 21 12 26 98 5 98 16 132 50 150 35 19 42 13 35 -31
-7 -40 -6 -41 16 -34 61 17 131 60 173 105 26 28 49 50 51 50 3 0 5 -18 5 -40
0 -22 4 -40 9 -40 5 0 25 19 45 41 38 45 43 43 48 -25 l3 -38 41 42 c65 65 93
126 101 214 3 42 11 80 17 85 7 6 32 4 66 -5 31 -8 102 -14 167 -14 l112 0
-40 38 c-26 24 -43 50 -48 75 -5 20 -7 37 -4 37 3 0 19 -11 35 -26 20 -16 40
-24 57 -22 25 3 26 6 31 73 l5 70 28 -47 c40 -69 65 -63 78 17 5 33 7 27 8
-32 1 -71 2 -73 26 -73 28 0 79 23 107 47 14 13 17 12 23 -9 16 -52 38 -88 54
-88 55 0 203 153 259 266 l25 53 59 -30 c76 -38 159 -57 290 -65 133 -9 142
-4 122 63 -8 25 -14 70 -14 99 0 66 -13 103 -47 131 l-26 21 64 -4 c35 -3 81
-6 102 -8 21 -2 37 0 37 6 0 21 -103 138 -148 168 -25 17 -84 42 -131 56 l-84
26 39 18 c22 9 50 29 63 44 l24 26 -99 0 c-122 1 -174 12 -239 52 -29 19 -77
37 -115 44 l-65 12 50 1 c65 2 86 14 48 29 -44 17 -129 32 -181 32 -96 0 -119
9 -146 55 -14 23 -41 56 -61 74 l-36 31 53 0 c82 1 180 17 196 34 13 13 10 15
-24 21 -81 14 -102 25 -138 75 -20 27 -46 52 -58 54 -13 3 -93 7 -178 9 -85 3
-180 11 -210 18 l-55 13 42 6 c57 8 61 16 20 29 -34 12 -35 13 -21 39 8 15 14
52 14 83 l0 56 -39 -38 c-22 -20 -61 -44 -88 -53 -91 -30 -213 -33 -213 -6 0
5 11 12 25 16 30 7 31 15 6 38 -13 11 -36 18 -68 18 -26 0 -63 2 -81 5 l-33 4
31 29 c41 39 39 75 -5 75 -16 -1 -39 -4 -50 -8 -19 -6 -21 -3 -21 46 0 34 -8
68 -23 100 -23 48 -65 86 -79 73 -4 -4 -6 -37 -6 -72 l2 -64 -30 44 c-33 51
-109 106 -146 106 -22 0 -24 -3 -18 -32 3 -18 20 -53 36 -78 l30 -45 -24 -3
c-14 -2 -48 4 -77 12 -29 9 -73 16 -98 16 -40 0 -43 1 -26 14 18 13 18 14 -3
25 -11 6 -59 11 -106 11 -47 0 -86 3 -86 6 0 3 5 15 11 26 10 19 9 20 -12 14
-48 -14 -89 -18 -106 -12 -14 6 -10 13 25 45 52 48 55 71 8 71 -46 0 -275 -74
-317 -103 -60 -41 -58 -41 -52 0 l6 37 -39 -31 c-52 -42 -99 -53 -223 -53
l-103 0 6 31 c3 17 6 42 6 56 0 20 3 22 19 14 28 -16 126 -25 145 -14 16 9 14
14 -16 54 -19 24 -57 58 -86 75 l-52 31 52 6 c49 6 148 59 148 80 0 4 -37 7
-82 7 -60 0 -95 6 -125 20 -40 18 -62 40 -28 26 8 -3 28 -3 45 0 28 6 28 7 14
30 -18 27 -107 74 -143 75 -15 0 6 7 45 14 77 14 119 32 148 64 32 35 15 47
-73 54 -65 4 -94 12 -143 37 -91 48 -135 61 -221 69 l-77 6 47 35 c44 32 48
39 51 83 2 26 0 47 -4 47 -3 0 -19 -11 -35 -24 -34 -29 -116 -61 -181 -70 -34
-5 -56 -2 -85 10 -36 16 -36 18 -13 21 49 8 57 14 30 25 -14 6 -43 14 -65 17
l-40 7 33 17 c44 24 112 86 112 103 0 17 -32 34 -65 34 -41 0 -225 -39 -254
-54 -16 -9 -34 -11 -50 -6 -15 5 -44 12 -66 16 -22 4 -32 9 -22 11 9 3 17 8
17 13 0 22 -52 35 -155 40 l-110 5 -3 33 c-3 27 -7 32 -20 26 -21 -8 -125 -24
-130 -19 -2 2 16 12 40 23 57 25 73 44 58 71 -15 30 -49 36 -190 36 -108 0
-132 -3 -174 -23 -27 -12 -50 -22 -52 -22 -2 0 -4 20 -4 45 0 32 -4 45 -14 45
-15 0 -76 -64 -76 -80 0 -6 -4 -10 -9 -10 -5 0 -7 9 -4 20 6 24 -56 157 -86
184 -23 21 -56 14 -72 -16 -6 -11 -17 -52 -24 -91 -7 -40 -13 -61 -14 -47 -2
30 -41 102 -58 108 -10 3 -11 -17 -7 -86 7 -88 6 -91 -20 -117 -39 -38 -51
-28 -48 38 l2 56 -47 -20 c-27 -11 -62 -34 -79 -51 -34 -32 -70 -35 -68 -5 1
13 -7 17 -39 17 -32 0 -38 3 -29 12 7 7 12 30 12 51 l0 40 -49 -5 c-27 -3 -74
-17 -104 -31 -30 -15 -57 -27 -60 -27 -4 0 -7 33 -7 73 0 92 -7 104 -48 83
-17 -9 -36 -24 -41 -33 -6 -10 -11 -15 -11 -11 0 4 -13 3 -30 -2 -16 -5 -39
-6 -50 -3 -21 6 -21 6 6 28 27 21 27 23 8 33 -55 29 -199 39 -256 17 -14 -6
-16 -1 -11 34 6 47 3 49 -35 21 -15 -10 -46 -24 -70 -29 -39 -8 -43 -7 -36 7
3 10 9 28 12 41 l5 24 -87 -5 c-59 -3 -85 -1 -82 6 19 48 21 46 -35 45 -30 0
-67 -5 -84 -10z m-2729 -3766 c-10 -10 -19 5 -10 18 6 11 8 11 12 0 2 -7 1
-15 -2 -18z m4109 -129 c32 -8 97 10 115 31 16 20 34 19 26 0 -8 -22 19 -30
59 -18 l33 11 -19 -32 c-32 -52 -27 -59 40 -53 54 4 58 3 54 -14 -4 -13 0 -19
10 -19 10 0 13 -6 10 -20 -7 -28 24 -37 58 -18 26 15 69 14 69 -1 0 -20 -36
-51 -82 -71 -29 -13 -47 -25 -40 -27 6 -3 10 -9 6 -14 -8 -14 -74 -11 -248 12
-136 17 -173 18 -249 9 -50 -6 -93 -12 -96 -14 -3 -2 -67 -20 -142 -39 -160
-42 -269 -59 -274 -43 -9 24 -25 132 -25 160 0 26 2 28 13 13 18 -24 61 -37
124 -37 48 0 55 2 50 18 -21 64 -26 58 65 65 46 3 96 10 111 16 16 6 66 11
112 11 46 0 86 4 89 9 4 5 2 19 -2 32 -8 20 -2 28 37 59 l46 37 12 -28 c7 -17
22 -31 38 -35z m1040 -14 c-13 -22 17 -40 66 -40 39 0 47 -3 43 -15 -6 -14 5
-19 33 -16 9 1 8 -7 -2 -33 -8 -20 -15 -47 -15 -61 0 -35 35 -34 54 2 l14 28
-1 -38 c-1 -54 28 -72 60 -37 18 19 19 18 19 -35 0 -46 -3 -55 -21 -59 -47
-13 -233 -1 -483 30 -54 7 -46 19 8 15 32 -2 40 1 40 15 0 9 7 22 16 29 27 19
20 63 -15 99 -31 32 -31 32 -11 51 19 17 88 46 155 65 42 11 47 11 40 0z"/>
</g>
</svg>
